<svg xmlns="http://www.w3.org/2000/svg" width="600" height="400" viewBox="0 0 600 400">
  <rect width="600" height="400" fill="#be123c"/>
  <rect x="100" y="150" width="400" height="120" rx="12" fill="#881337"/>
  <g fill="#fda4af">
    <rect x="120" y="170" width="28" height="28" rx="4"/><rect x="156" y="170" width="28" height="28" rx="4"/><rect x="192" y="170" width="28" height="28" rx="4"/>
    <rect x="228" y="170" width="28" height="28" rx="4"/><rect x="264" y="170" width="28" height="28" rx="4"/><rect x="300" y="170" width="28" height="28" rx="4"/>
    <rect x="336" y="170" width="28" height="28" rx="4"/><rect x="372" y="170" width="28" height="28" rx="4"/><rect x="408" y="170" width="28" height="28" rx="4"/>
    <rect x="444" y="170" width="28" height="28" rx="4"/>
    <rect x="120" y="210" width="352" height="28" rx="4"/>
  </g>
  <text x="300" y="360" text-anchor="middle" font-family="Segoe UI,sans-serif" font-size="24" font-weight="600" fill="#fff">Gaming Keyboard</text>
</svg>
